# xmcd
#
# Track frame offsets:
#	150
#	18044
#	42823
#
# Disc length: 1017 seconds
#
# Revision: 1
# Processed by: cddbd v1.4PL0 Copyright (c) Steve Scherf et al.
# Submitted via: audiograbber 1.81.03
#
DISCID=1403f703
DTITLE=Brooke McClymont - I Can't Wait
DYEAR=2002
DGENRE=Pop
TTITLE0=I Can't Wait
TTITLE1=It's Not Worth It
TTITLE2=Data Track
EXTD=
EXTT0=
EXTT1=
EXTT2=
PLAYORDER=
